<?xml version="1.0" standalone="no"?>
<!DOCTYPE svg PUBLIC "-//W3C//DTD SVG 20010904//EN"
 "http://www.w3.org/TR/2001/REC-SVG-20010904/DTD/svg10.dtd">
<svg version="1.0" xmlns="http://www.w3.org/2000/svg"
 width="150.000000pt" height="150.000000pt" viewBox="0 0 150.000000 150.000000"
 preserveAspectRatio="xMidYMid meet">

<g transform="translate(0.000000,150.000000) scale(0.100000,-0.100000)"
fill="#000000" stroke="none">
<path d="M0 750 l0 -750 518 2 517 3 3 30 c7 81 12 95 37 95 13 0 30 -7 39
-15 11 -11 29 -14 68 -10 l53 5 -35 -16 c-55 -25 -63 -34 -43 -50 10 -7 28
-14 39 -14 12 0 38 -7 57 -15 25 -10 71 -15 142 -15 l105 0 0 584 c0 548 -1
585 -17 589 -17 4 -17 5 0 6 15 1 17 16 17 161 l0 160 -36 0 -36 0 8 -142 c4
-79 7 -153 7 -165 -1 -13 2 -23 7 -23 4 0 5 -21 3 -47 -2 -27 0 -122 5 -213 5
-91 5 -169 1 -174 -5 -6 -9 -8 -10 -5 -6 24 -27 469 -28 587 -1 84 -4 159 -7
167 -4 10 -20 15 -51 15 -27 0 -42 -4 -38 -10 3 -5 1 -10 -6 -10 -17 0 -8
-183 11 -205 12 -14 12 -18 0 -25 -15 -9 -16 -99 -4 -236 5 -61 4 -72 -11 -78
-12 -4 -14 -10 -7 -19 12 -15 22 -217 10 -217 -4 0 -7 -56 -6 -124 2 -68 6
-122 10 -120 5 3 8 1 8 -4 0 -5 -14 -12 -30 -16 -25 -5 -29 -9 -22 -23 4 -10
8 -25 7 -33 -1 -8 -3 -21 -3 -28 -1 -8 -7 -10 -14 -6 -7 5 -20 9 -30 9 -14 1
-13 -4 8 -28 28 -33 26 -44 -4 -28 -15 8 -23 7 -33 -5 -18 -21 6 -39 64 -48
52 -9 32 -26 -28 -24 -26 0 -68 -11 -112 -31 -39 -17 -73 -31 -76 -31 -2 0 -7
55 -11 123 -4 67 -10 151 -15 187 -6 49 -5 70 5 87 20 32 17 43 -10 43 -17 0
-34 -13 -56 -42 -27 -37 -31 -51 -30 -98 3 -96 -3 -296 -7 -265 -13 95 -52
189 -115 273 -31 41 -37 56 -28 67 19 23 1 84 -32 108 -17 12 -52 51 -80 85
-39 50 -48 69 -44 88 12 46 -23 26 -52 -31 -20 -40 -158 -163 -169 -151 -9 8
-4 341 7 474 6 70 5 155 0 220 -6 59 -7 122 -4 140 l6 32 -121 0 -121 0 1 -52
1 -53 13 45 c12 43 13 40 16 -83 2 -71 1 -131 -4 -134 -4 -2 -5 -9 -1 -14 3
-5 10 -7 15 -4 12 8 12 -8 -1 -21 -7 -7 -9 -85 -8 -214 l3 -204 25 -13 c17 -9
20 -13 8 -13 -35 0 -48 -39 -48 -140 0 -52 -5 -102 -10 -110 -8 -12 -10 -10
-10 8 0 13 -4 20 -10 17 -6 -4 -10 6 -11 22 -3 92 -5 107 -18 111 -9 3 -11 0
-6 -8 5 -9 4 -11 -3 -6 -7 4 -11 22 -11 39 1 24 3 26 6 10 2 -13 8 -23 13 -23
11 0 0 43 -13 52 -7 4 -7 11 0 20 15 19 4 128 -13 128 -15 0 -20 45 -6 53 4 3
7 43 7 88 0 72 -3 84 -18 87 -14 3 -17 -2 -13 -24 3 -15 1 -23 -3 -18 -5 5
-11 50 -14 99 -6 94 -3 103 8 23 11 -85 26 -53 24 52 -2 95 -3 102 -27 120
-18 15 -21 20 -8 20 13 0 16 12 16 70 l0 70 -40 0 -40 0 0 -750z m255 460 c3
-5 1 -10 -4 -10 -6 0 -11 5 -11 10 0 6 2 10 4 10 3 0 8 -4 11 -10z m-158 -257
c-3 -10 -5 -2 -5 17 0 19 2 27 5 18 2 -10 2 -26 0 -35z m20 -165 c-3 -8 -6 -5
-6 6 -1 11 2 17 5 13 3 -3 4 -12 1 -19z m1351 -178 c3 -99 -2 -139 -14 -127
-3 3 -8 58 -11 122 -4 95 -2 116 9 113 9 -3 14 -33 16 -108z m-521 -507 c-3
-10 -5 -2 -5 17 0 19 2 27 5 18 2 -10 2 -26 0 -35z"/>
<path d="M563 1424 c5 -50 13 -85 26 -102 18 -25 18 -26 -13 -69 -28 -40 -30
-49 -27 -111 2 -37 4 -80 4 -97 0 -16 2 -24 4 -17 4 9 12 5 28 -13 13 -14 27
-25 30 -25 3 0 3 22 0 49 -7 59 3 68 46 45 28 -14 30 -18 16 -26 -22 -12 -22
-29 1 -21 16 6 16 5 0 -14 -24 -27 -23 -36 5 -28 22 7 22 7 2 -9 -20 -15 -20
-15 5 -17 14 -1 31 -1 38 0 17 3 15 -26 -3 -33 -9 -3 -15 -18 -15 -35 0 -35
25 -87 35 -72 9 16 22 13 22 -4 0 -8 -4 -15 -9 -15 -5 0 -4 -9 2 -20 12 -22 1
-27 -18 -8 -6 6 -23 12 -37 14 -19 2 -25 -2 -25 -17 0 -31 27 -65 98 -121 36
-29 60 -54 53 -56 -6 -2 -11 -8 -11 -14 0 -6 6 -6 15 2 18 15 32 6 49 -33 13
-32 13 -31 20 40 4 40 4 77 1 83 -3 5 -2 10 4 10 12 0 9 18 -11 55 -15 29 -15
32 8 70 13 23 26 64 30 98 5 40 10 55 17 48 12 -12 37 29 37 61 0 10 4 17 9
14 5 -3 7 -26 6 -51 -2 -25 0 -45 4 -45 4 0 17 14 30 30 12 17 26 28 32 25 5
-4 9 1 9 9 0 9 5 16 12 16 7 0 24 12 40 27 15 14 30 24 34 21 3 -3 -2 -30 -10
-59 -10 -32 -13 -56 -7 -62 5 -5 7 -16 4 -23 -3 -8 0 -20 6 -28 6 -7 8 -16 4
-19 -3 -4 1 -7 10 -7 9 0 19 5 22 10 12 20 27 10 21 -14 -3 -13 -2 -35 3 -48
9 -22 10 -22 10 7 1 19 9 35 22 43 19 12 19 14 4 25 -22 17 -37 84 -20 91 17
6 25 -3 25 -27 0 -40 10 -10 15 47 7 68 2 80 -28 65 -17 -8 -16 -5 5 13 l28
24 -3 197 -2 197 -212 0 c-195 0 -235 -5 -203 -25 6 -3 10 -14 10 -25 0 -14
-5 -17 -22 -12 -21 5 -22 4 -8 -12 13 -17 12 -20 -13 -40 -15 -12 -27 -28 -27
-36 0 -9 7 -7 20 8 27 29 44 28 37 0 -6 -22 -6 -22 13 2 11 14 20 33 20 43 0
9 5 17 11 17 6 0 8 -9 5 -20 -16 -56 -14 -61 8 -20 24 42 25 43 26 17 0 -16 4
-26 9 -23 5 4 21 2 35 -4 23 -8 26 -7 26 13 0 12 5 29 10 37 7 12 12 7 24 -20
15 -37 17 -35 34 30 l9 35 13 -45 c11 -40 13 -43 21 -23 4 12 17 28 29 35 11
7 20 20 21 28 0 9 4 7 11 -7 6 -13 15 -23 20 -23 4 0 8 -9 8 -21 0 -11 -4 -18
-9 -15 -5 3 -14 -1 -21 -9 -7 -8 -9 -15 -6 -15 4 0 0 -7 -8 -16 -9 -8 -20 -13
-25 -9 -5 3 -12 1 -15 -4 -3 -5 1 -11 9 -15 22 -8 18 -26 -5 -26 -11 0 -20 -4
-20 -10 0 -5 0 -13 0 -17 -1 -5 16 -11 37 -14 32 -5 28 -6 -24 -8 -58 -1 -89
-14 -61 -24 7 -2 -5 -9 -26 -15 -34 -10 -43 -9 -58 5 -10 8 -15 20 -12 24 3 5
0 9 -5 9 -6 0 -11 6 -11 13 0 14 -112 50 -120 38 -3 -4 -36 -7 -75 -7 -56 -1
-64 1 -42 8 15 6 27 14 27 19 0 13 -39 10 -85 -6 -22 -8 -41 -15 -43 -15 -2 0
0 45 3 100 l8 100 -33 0 -33 0 6 -76z m349 24 c-7 -7 -12 -8 -12 -2 0 14 12
26 19 19 2 -3 -1 -11 -7 -17z m-246 -147 c-4 -5 -1 -11 6 -13 7 -3 -2 -11 -20
-19 -18 -8 -30 -19 -28 -26 3 -7 1 -15 -5 -19 -6 -3 -14 -17 -19 -30 -5 -13
-14 -24 -19 -24 -5 0 -4 13 2 30 6 17 15 30 19 30 4 0 8 7 8 15 0 9 12 27 26
40 28 26 39 32 30 16z m240 -59 c16 -10 17 -11 2 -12 -9 0 -20 5 -23 10 -4 6
-28 9 -53 7 -26 -3 -37 -2 -24 0 12 2 20 8 17 13 -6 10 56 -4 81 -18z m244
-20 c0 -12 -23 -32 -37 -32 -7 0 -13 9 -13 20 0 15 7 20 25 20 14 0 25 -4 25
-8z m-197 -17 c4 -8 2 -17 -2 -20 -5 -2 -11 4 -14 15 -6 23 8 27 16 5z m67
-45 c-19 -13 -30 -13 -30 0 0 6 10 10 23 10 18 0 19 -2 7 -10z m-10 -35 c-10
-12 -9 -15 5 -15 13 0 16 -5 11 -22 -3 -13 -6 -26 -6 -30 0 -18 -20 -6 -20 12
0 11 -4 20 -10 20 -11 0 -1 32 14 42 17 12 19 9 6 -7z m210 -67 c0 -4 -4 -8
-9 -8 -6 0 -12 4 -15 8 -3 5 1 9 9 9 8 0 15 -4 15 -9z m-422 -72 c12 -56 7
-76 -18 -76 -24 0 -31 44 -13 70 10 13 12 31 8 48 -4 17 -3 23 3 17 6 -5 14
-32 20 -59z m-33 -106 c3 -5 -1 -10 -10 -10 -9 0 -13 5 -10 10 3 6 8 10 10 10
2 0 7 -4 10 -10z"/>
<path d="M800 1420 c0 -5 5 -10 11 -10 5 0 7 5 4 10 -3 6 -8 10 -11 10 -2 0
-4 -4 -4 -10z"/>
<path d="M181 1354 c0 -11 3 -14 6 -6 3 7 2 16 -1 19 -3 4 -6 -2 -5 -13z"/>
<path d="M1050 1270 c0 -5 5 -10 11 -10 5 0 7 5 4 10 -3 6 -8 10 -11 10 -2 0
-4 -4 -4 -10z"/>
<path d="M566 1002 c-3 -5 -3 -18 0 -30 8 -29 32 -17 26 14 -4 24 -16 31 -26
16z"/>
<path d="M1261 814 c0 -11 3 -14 6 -6 3 7 2 16 -1 19 -3 4 -6 -2 -5 -13z"/>
<path d="M1009 773 c-1 -5 0 -24 1 -43 l2 -35 -26 24 c-14 14 -26 21 -26 17 0
-10 42 -66 50 -66 4 0 8 25 9 55 1 30 0 55 -3 55 -4 0 -6 -3 -7 -7z"/>
<path d="M1213 732 c0 -18 4 -35 9 -38 10 -6 9 24 -2 51 -6 16 -8 14 -7 -13z"/>
<path d="M188 743 c7 -3 16 -2 19 1 4 3 -2 6 -13 5 -11 0 -14 -3 -6 -6z"/>
<path d="M876 465 c4 -8 10 -15 15 -15 5 0 9 7 9 15 0 8 -7 15 -15 15 -9 0
-12 -6 -9 -15z"/>
<path d="M892 420 c0 -14 2 -19 5 -12 2 6 2 18 0 25 -3 6 -5 1 -5 -13z"/>
</g>
</svg>
